External Loads File
version=1
nRows=54
nColumns=13
Range=5.000000e-03-10 seconds
endheader
time 	forceRightX 	forceRightY 	forceRightZ 	pointRightX 	pointRightY 	pointRightZ 	forceLeftX 	forceLeftY 	forceLeftZ 	pointLeftX 	pointLeftY 	pointLeftZ 		
5.005000 -47.294348 -54.432896 -0.000000 0.054414 0.275408 -0.100088 -186.968344 228.661090 -0.000000 0.339302 0.345400 -0.348915
5.010000 -46.485468 -49.642998 -0.000000 0.053490 0.286088 -0.100121 -193.249781 266.231476 -0.000000 0.338198 0.334382 -0.349052
5.015000 -43.761266 -43.133652 -0.000000 0.053097 0.296958 -0.100168 -197.839243 307.554495 -0.000000 0.336660 0.323149 -0.349074
5.020000 -39.247085 -35.481806 -0.000000 0.053358 0.307886 -0.100476 -200.590526 351.812454 -0.000000 0.334825 0.311969 -0.349871
5.025000 -33.228161 -27.194598 -0.000000 0.054207 0.319023 -0.100655 -200.924394 398.360036 -0.000000 0.332288 0.300890 -0.349637
5.030000 -26.002083 -18.730726 -0.000000 0.055678 0.330197 -0.100765 -198.439354 446.394773 -0.000000 0.329301 0.289801 -0.349548
5.035000 -17.860410 -10.468142 -0.000000 0.057614 0.341441 -0.100961 -193.204491 494.976170 -0.000000 0.325827 0.278982 -0.349369
5.040000 -9.102791 -2.652722 -0.000000 0.060292 0.352445 -0.101136 -185.275239 543.344089 -0.000000 0.321972 0.268302 -0.349162
5.045000 -0.000066 4.580414 -0.000000 0.063658 0.363486 -0.101066 -174.124518 591.021703 -0.000000 0.317634 0.257888 -0.348905
5.050000 9.197201 11.156695 -0.000000 0.067310 0.374199 -0.101289 -160.545114 637.115077 -0.000000 0.312797 0.247769 -0.348498
5.055000 18.244056 17.023731 -0.000000 0.071711 0.384694 -0.101445 -143.626304 681.192609 -0.000000 0.307442 0.237884 -0.348369
5.060000 26.849612 22.102601 -0.000000 0.076632 0.394895 -0.101618 -123.792821 722.444454 -0.000000 0.301626 0.228363 -0.348098
5.065000 34.677367 26.254911 -0.000000 0.082035 0.404703 -0.101804 -101.213986 760.222139 -0.000000 0.295340 0.219208 -0.347854
5.070000 41.349159 29.324060 -0.000000 0.087987 0.414151 -0.101861 -76.305397 793.992599 -0.000000 0.288771 0.210509 -0.347671
5.075000 46.529469 31.167229 -0.000000 0.094365 0.423359 -0.102000 -48.994509 823.424632 -0.000000 0.281839 0.202181 -0.347601
5.080000 49.966793 31.722466 -0.000000 0.101580 0.432168 -0.101992 -19.317408 848.222820 -0.000000 0.274580 0.194335 -0.347354
5.085000 51.408491 31.233442 -0.000000 0.108293 0.440652 -0.102379 9.397862 868.156918 -0.000000 0.266977 0.187092 -0.347091
5.090000 50.993534 29.684052 -0.000000 0.116176 0.448830 -0.102384 40.669897 883.187779 -0.000000 0.259046 0.180259 -0.346739
5.095000 48.719552 27.667517 -0.000000 0.123907 0.456537 -0.102656 70.301475 893.447278 -0.000000 0.250919 0.173900 -0.346399
5.100000 44.835155 25.670132 -0.000000 0.131653 0.463644 -0.102884 97.794316 899.203635 -0.000000 0.242559 0.168277 -0.346161
5.105000 39.693467 24.157741 -0.000000 0.139842 0.469896 -0.103249 123.974019 900.557326 -0.000000 0.233970 0.163266 -0.345929
5.110000 33.638257 23.574693 -0.000000 0.148545 0.475428 -0.103557 149.207042 897.528267 -0.000000 0.225188 0.158551 -0.345765
5.115000 26.925670 24.252232 -0.000000 0.157523 0.480330 -0.103624 172.407098 890.280276 -0.000000 0.216215 0.154598 -0.345657
5.120000 19.769136 26.231054 -0.000000 0.166909 0.484254 -0.103903 193.742042 878.712867 -0.000000 0.207131 0.151181 -0.345632
5.125000 12.342539 29.324839 -0.000000 0.177050 0.487880 -0.103841 214.227568 862.418546 -0.000000 0.197946 0.148320 -0.345606
5.130000 4.643142 33.241757 -0.000000 0.187148 0.490479 -0.104116 231.207073 841.833444 -0.000000 0.188802 0.146209 -0.345796
5.135000 -3.335519 37.512410 -0.000000 0.196587 0.492388 -0.104235 243.861131 817.087727 -0.000000 0.179548 0.144645 -0.345582
5.140000 -11.437116 41.669834 -0.000000 0.206505 0.493546 -0.104448 254.607851 787.336764 -0.000000 0.170314 0.143697 -0.345795
5.145000 -19.609252 45.331951 -0.000000 0.216277 0.494173 -0.104725 261.980059 752.849195 -0.000000 0.161161 0.143427 -0.345884
5.150000 -27.644497 48.272041 -0.000000 0.225907 0.494136 -0.105048 266.328019 713.364431 -0.000000 0.152108 0.144673 -0.346125
5.155000 -35.350521 50.395971 -0.000000 0.235482 0.493370 -0.105230 266.888741 669.097936 -0.000000 0.143291 0.145244 -0.346677
5.160000 -42.403713 51.827930 -0.000000 0.244745 0.491958 -0.105142 264.562638 619.820880 -0.000000 0.134621 0.148067 -0.346204
5.165000 -48.769805 52.610815 -0.000000 0.253678 0.489705 -0.105120 257.336192 566.825804 -0.000000 0.126352 0.149673 -0.346724
5.170000 -54.199167 53.128452 -0.000000 0.262258 0.486625 -0.105111 247.012450 510.144651 -0.000000 0.118388 0.152915 -0.346157
5.175000 -58.749146 53.669026 -0.000000 0.270563 0.482961 -0.105096 232.910587 451.224853 -0.000000 0.110938 0.156817 -0.346513
5.180000 -62.460828 54.656002 -0.000000 0.278181 0.478657 -0.105070 215.388872 391.360015 -0.000000 0.103804 0.161404 -0.346173
5.185000 -65.412031 56.555299 -0.000000 0.285411 0.473734 -0.104870 195.116110 331.953157 -0.000000 0.097162 0.166637 -0.345940
5.190000 -67.738351 59.796635 -0.000000 0.292221 0.467924 -0.104671 172.842214 274.589380 -0.000000 0.091005 0.172141 -0.345613
5.195000 -69.566250 64.783493 -0.000000 0.298573 0.461476 -0.104226 149.623194 220.776756 -0.000000 0.085263 0.178327 -0.345317
5.200000 -71.078402 71.777396 -0.000000 0.304500 0.454263 -0.103677 126.446677 171.969377 -0.000000 0.079932 0.184739 -0.345112
5.205000 -72.631283 80.829192 -0.000000 0.309400 0.446664 -0.103726 104.173725 129.413180 -0.000000 0.074877 0.191180 -0.344810
5.210000 -74.132051 92.393515 -0.000000 0.314161 0.438381 -0.103489 84.420405 93.201776 -0.000000 0.070192 0.198606 -0.344539
5.215000 -76.149374 106.314724 -0.000000 0.318302 0.430128 -0.103301 67.489775 63.776557 -0.000000 0.065840 0.206166 -0.344358
5.220000 -78.582033 122.917445 -0.000000 0.322041 0.421094 -0.103162 54.122599 40.469904 -0.000000 0.061812 0.214190 -0.344167
5.225000 -81.583679 142.178913 -0.000000 0.325162 0.411423 -0.103146 44.346562 22.595211 -0.000000 0.058071 0.222566 -0.344059
5.230000 -85.313576 163.938985 -0.000000 0.327640 0.401461 -0.103012 37.918446 9.265046 -0.000000 0.054720 0.231197 -0.343572
5.235000 -89.545436 188.094985 -0.000000 0.329400 0.391105 -0.102630 34.395526 -0.511791 -0.000000 0.051975 0.240401 -0.343437
5.240000 -93.851186 214.466751 -0.000000 0.331077 0.380424 -0.102870 33.176826 -7.605001 -0.000000 0.049583 0.249867 -0.343279
5.245000 -98.034842 242.629434 -0.000000 0.332046 0.369309 -0.102909 33.670848 -12.662685 -0.000000 0.047866 0.259604 -0.343009
5.250000 -101.780810 272.145607 -0.000000 0.332546 0.358111 -0.103331 35.382517 -16.190908 -0.000000 0.046628 0.269520 -0.342834
5.255000 -104.644080 302.637951 -0.000000 0.332516 0.346798 -0.103468 37.909438 -18.572450 -0.000000 0.046025 0.279628 -0.342778
5.260000 -106.162239 333.800222 -0.000000 0.331926 0.335377 -0.103541 40.923276 -20.079070 -0.000000 0.046002 0.289850 -0.342687
5.265000 -105.887324 365.389581 -0.000000 0.331093 0.323905 -0.103669 44.155850 -20.892099 -0.000000 0.046516 0.300135 -0.342643
5.270000 -103.581684 397.155155 -0.000000 0.329654 0.312508 -0.103893 47.408051 -21.091331 -0.000000 0.047693 0.310496 -0.342517
